<mxfile host="app.diagrams.net" agent="Mozilla/5.0 (Windows NT 10.0; Win64; x64) AppleWebKit/537.36 (KHTML, like Gecko) Chrome/136.0.0.0 Safari/537.36" version="26.2.13">
  <diagram name="第 1 页" id="_9g_SXq2MBoTsozk7ja0">
    <mxGraphModel dx="2211" dy="777" grid="1" gridSize="10" guides="1" tooltips="1" connect="1" arrows="1" fold="1" page="1" pageScale="1" pageWidth="827" pageHeight="1169" math="0" shadow="0">
      <root>
        <mxCell id="0" />
        <mxCell id="1" parent="0" />
        <mxCell id="fUESMz7QUyZs5_iJd-3Z-3" value="" style="edgeStyle=orthogonalEdgeStyle;rounded=0;orthogonalLoop=1;jettySize=auto;html=1;" edge="1" parent="1" source="fUESMz7QUyZs5_iJd-3Z-1" target="fUESMz7QUyZs5_iJd-3Z-2">
          <mxGeometry relative="1" as="geometry" />
        </mxCell>
        <mxCell id="fUESMz7QUyZs5_iJd-3Z-1" value="基于YOLO改进的工地安全帽佩戴检测算法研究" style="rounded=0;whiteSpace=wrap;html=1;" vertex="1" parent="1">
          <mxGeometry x="170" y="70" width="220" height="30" as="geometry" />
        </mxCell>
        <mxCell id="fUESMz7QUyZs5_iJd-3Z-7" style="edgeStyle=orthogonalEdgeStyle;rounded=0;orthogonalLoop=1;jettySize=auto;html=1;exitX=0.5;exitY=1;exitDx=0;exitDy=0;entryX=0.5;entryY=0;entryDx=0;entryDy=0;" edge="1" parent="1" source="fUESMz7QUyZs5_iJd-3Z-2" target="fUESMz7QUyZs5_iJd-3Z-5">
          <mxGeometry relative="1" as="geometry" />
        </mxCell>
        <mxCell id="fUESMz7QUyZs5_iJd-3Z-8" style="edgeStyle=orthogonalEdgeStyle;rounded=0;orthogonalLoop=1;jettySize=auto;html=1;entryX=0.5;entryY=0;entryDx=0;entryDy=0;" edge="1" parent="1" source="fUESMz7QUyZs5_iJd-3Z-2" target="fUESMz7QUyZs5_iJd-3Z-4">
          <mxGeometry relative="1" as="geometry" />
        </mxCell>
        <mxCell id="fUESMz7QUyZs5_iJd-3Z-9" style="edgeStyle=orthogonalEdgeStyle;rounded=0;orthogonalLoop=1;jettySize=auto;html=1;entryX=0.5;entryY=0;entryDx=0;entryDy=0;" edge="1" parent="1" source="fUESMz7QUyZs5_iJd-3Z-2" target="fUESMz7QUyZs5_iJd-3Z-6">
          <mxGeometry relative="1" as="geometry" />
        </mxCell>
        <mxCell id="fUESMz7QUyZs5_iJd-3Z-2" value="绪论" style="whiteSpace=wrap;html=1;rounded=0;" vertex="1" parent="1">
          <mxGeometry x="190" y="120" width="180" height="25" as="geometry" />
        </mxCell>
        <mxCell id="fUESMz7QUyZs5_iJd-3Z-4" value="研究背景和意义" style="rounded=0;whiteSpace=wrap;html=1;" vertex="1" parent="1">
          <mxGeometry x="100" y="190" width="110" height="20" as="geometry" />
        </mxCell>
        <mxCell id="fUESMz7QUyZs5_iJd-3Z-5" value="研究现状" style="rounded=0;whiteSpace=wrap;html=1;" vertex="1" parent="1">
          <mxGeometry x="225" y="190" width="110" height="20" as="geometry" />
        </mxCell>
        <mxCell id="fUESMz7QUyZs5_iJd-3Z-6" value="研究内容和创新点" style="rounded=0;whiteSpace=wrap;html=1;" vertex="1" parent="1">
          <mxGeometry x="359" y="190" width="110" height="20" as="geometry" />
        </mxCell>
        <mxCell id="fUESMz7QUyZs5_iJd-3Z-12" value="" style="edgeStyle=orthogonalEdgeStyle;rounded=0;orthogonalLoop=1;jettySize=auto;html=1;" edge="1" parent="1" source="fUESMz7QUyZs5_iJd-3Z-10" target="fUESMz7QUyZs5_iJd-3Z-11">
          <mxGeometry relative="1" as="geometry" />
        </mxCell>
        <mxCell id="fUESMz7QUyZs5_iJd-3Z-10" value="" style="rounded=1;whiteSpace=wrap;html=1;fillColor=none;dashed=1;" vertex="1" parent="1">
          <mxGeometry x="75" y="110" width="410" height="120" as="geometry" />
        </mxCell>
        <mxCell id="fUESMz7QUyZs5_iJd-3Z-22" style="edgeStyle=orthogonalEdgeStyle;rounded=0;orthogonalLoop=1;jettySize=auto;html=1;" edge="1" parent="1" source="fUESMz7QUyZs5_iJd-3Z-11">
          <mxGeometry relative="1" as="geometry">
            <mxPoint x="80" y="410" as="targetPoint" />
          </mxGeometry>
        </mxCell>
        <mxCell id="fUESMz7QUyZs5_iJd-3Z-34" style="edgeStyle=orthogonalEdgeStyle;rounded=0;orthogonalLoop=1;jettySize=auto;html=1;exitX=0.5;exitY=1;exitDx=0;exitDy=0;entryX=0.5;entryY=0;entryDx=0;entryDy=0;" edge="1" parent="1" source="fUESMz7QUyZs5_iJd-3Z-11" target="fUESMz7QUyZs5_iJd-3Z-29">
          <mxGeometry relative="1" as="geometry" />
        </mxCell>
        <mxCell id="fUESMz7QUyZs5_iJd-3Z-11" value="" style="rounded=1;whiteSpace=wrap;html=1;fillColor=none;dashed=1;" vertex="1" parent="1">
          <mxGeometry x="75" y="250" width="410" height="120" as="geometry" />
        </mxCell>
        <mxCell id="fUESMz7QUyZs5_iJd-3Z-17" value="" style="edgeStyle=orthogonalEdgeStyle;rounded=0;orthogonalLoop=1;jettySize=auto;html=1;" edge="1" parent="1" source="fUESMz7QUyZs5_iJd-3Z-13" target="fUESMz7QUyZs5_iJd-3Z-15">
          <mxGeometry relative="1" as="geometry" />
        </mxCell>
        <mxCell id="fUESMz7QUyZs5_iJd-3Z-19" style="edgeStyle=orthogonalEdgeStyle;rounded=0;orthogonalLoop=1;jettySize=auto;html=1;exitX=0.5;exitY=1;exitDx=0;exitDy=0;entryX=0.5;entryY=0;entryDx=0;entryDy=0;" edge="1" parent="1" source="fUESMz7QUyZs5_iJd-3Z-13" target="fUESMz7QUyZs5_iJd-3Z-14">
          <mxGeometry relative="1" as="geometry" />
        </mxCell>
        <mxCell id="fUESMz7QUyZs5_iJd-3Z-21" style="edgeStyle=orthogonalEdgeStyle;rounded=0;orthogonalLoop=1;jettySize=auto;html=1;exitX=0.5;exitY=1;exitDx=0;exitDy=0;entryX=0.5;entryY=0;entryDx=0;entryDy=0;" edge="1" parent="1" source="fUESMz7QUyZs5_iJd-3Z-13" target="fUESMz7QUyZs5_iJd-3Z-16">
          <mxGeometry relative="1" as="geometry" />
        </mxCell>
        <mxCell id="fUESMz7QUyZs5_iJd-3Z-13" value="相关概念和数据集构建" style="rounded=0;whiteSpace=wrap;html=1;" vertex="1" parent="1">
          <mxGeometry x="200" y="260" width="170" height="20" as="geometry" />
        </mxCell>
        <mxCell id="fUESMz7QUyZs5_iJd-3Z-14" value="深度学习相关概念" style="rounded=0;whiteSpace=wrap;html=1;" vertex="1" parent="1">
          <mxGeometry x="90" y="320" width="120" height="20" as="geometry" />
        </mxCell>
        <mxCell id="fUESMz7QUyZs5_iJd-3Z-15" value="目标检测相关技术" style="rounded=0;whiteSpace=wrap;html=1;" vertex="1" parent="1">
          <mxGeometry x="225" y="320" width="120" height="20" as="geometry" />
        </mxCell>
        <mxCell id="fUESMz7QUyZs5_iJd-3Z-16" value="数据集制作" style="rounded=0;whiteSpace=wrap;html=1;" vertex="1" parent="1">
          <mxGeometry x="359" y="320" width="120" height="20" as="geometry" />
        </mxCell>
        <mxCell id="fUESMz7QUyZs5_iJd-3Z-35" style="edgeStyle=orthogonalEdgeStyle;rounded=0;orthogonalLoop=1;jettySize=auto;html=1;exitX=1;exitY=0.5;exitDx=0;exitDy=0;entryX=0;entryY=0.5;entryDx=0;entryDy=0;" edge="1" parent="1" source="fUESMz7QUyZs5_iJd-3Z-23" target="fUESMz7QUyZs5_iJd-3Z-29">
          <mxGeometry relative="1" as="geometry" />
        </mxCell>
        <mxCell id="fUESMz7QUyZs5_iJd-3Z-23" value="" style="rounded=1;whiteSpace=wrap;html=1;fillColor=none;dashed=1;" vertex="1" parent="1">
          <mxGeometry x="-60" y="410" width="350" height="150" as="geometry" />
        </mxCell>
        <mxCell id="fUESMz7QUyZs5_iJd-3Z-36" style="edgeStyle=orthogonalEdgeStyle;rounded=0;orthogonalLoop=1;jettySize=auto;html=1;exitX=0.5;exitY=1;exitDx=0;exitDy=0;" edge="1" parent="1" source="fUESMz7QUyZs5_iJd-3Z-24" target="fUESMz7QUyZs5_iJd-3Z-25">
          <mxGeometry relative="1" as="geometry" />
        </mxCell>
        <mxCell id="fUESMz7QUyZs5_iJd-3Z-24" value="融合注意力机制和多尺度特征的安全帽佩戴检测算法" style="rounded=0;whiteSpace=wrap;html=1;" vertex="1" parent="1">
          <mxGeometry x="10" y="420" width="180" height="30" as="geometry" />
        </mxCell>
        <mxCell id="fUESMz7QUyZs5_iJd-3Z-37" style="edgeStyle=orthogonalEdgeStyle;rounded=0;orthogonalLoop=1;jettySize=auto;html=1;exitX=0.5;exitY=1;exitDx=0;exitDy=0;entryX=0.5;entryY=0;entryDx=0;entryDy=0;" edge="1" parent="1" source="fUESMz7QUyZs5_iJd-3Z-25" target="fUESMz7QUyZs5_iJd-3Z-26">
          <mxGeometry relative="1" as="geometry" />
        </mxCell>
        <mxCell id="fUESMz7QUyZs5_iJd-3Z-38" style="edgeStyle=orthogonalEdgeStyle;rounded=0;orthogonalLoop=1;jettySize=auto;html=1;exitX=0.5;exitY=1;exitDx=0;exitDy=0;entryX=0.5;entryY=0;entryDx=0;entryDy=0;" edge="1" parent="1" source="fUESMz7QUyZs5_iJd-3Z-25" target="fUESMz7QUyZs5_iJd-3Z-27">
          <mxGeometry relative="1" as="geometry" />
        </mxCell>
        <mxCell id="fUESMz7QUyZs5_iJd-3Z-25" value="在工地复杂背景下对安全帽检测精确性较低" style="rounded=0;whiteSpace=wrap;html=1;" vertex="1" parent="1">
          <mxGeometry x="10" y="470" width="180" height="30" as="geometry" />
        </mxCell>
        <mxCell id="fUESMz7QUyZs5_iJd-3Z-26" value="SimAM注意力机制" style="rounded=0;whiteSpace=wrap;html=1;" vertex="1" parent="1">
          <mxGeometry x="-45" y="530" width="120" height="20" as="geometry" />
        </mxCell>
        <mxCell id="fUESMz7QUyZs5_iJd-3Z-27" value="AFPN特征融合网络" style="rounded=0;whiteSpace=wrap;html=1;" vertex="1" parent="1">
          <mxGeometry x="130" y="530" width="120" height="20" as="geometry" />
        </mxCell>
        <mxCell id="fUESMz7QUyZs5_iJd-3Z-29" value="" style="rounded=1;whiteSpace=wrap;html=1;fillColor=none;dashed=1;" vertex="1" parent="1">
          <mxGeometry x="330" y="410" width="320" height="150" as="geometry" />
        </mxCell>
        <mxCell id="fUESMz7QUyZs5_iJd-3Z-39" style="edgeStyle=orthogonalEdgeStyle;rounded=0;orthogonalLoop=1;jettySize=auto;html=1;exitX=0.5;exitY=1;exitDx=0;exitDy=0;" edge="1" parent="1" source="fUESMz7QUyZs5_iJd-3Z-30" target="fUESMz7QUyZs5_iJd-3Z-31">
          <mxGeometry relative="1" as="geometry" />
        </mxCell>
        <mxCell id="fUESMz7QUyZs5_iJd-3Z-30" value="基于轻量化改进的安全帽佩戴检测算法" style="rounded=0;whiteSpace=wrap;html=1;" vertex="1" parent="1">
          <mxGeometry x="400" y="420" width="180" height="30" as="geometry" />
        </mxCell>
        <mxCell id="fUESMz7QUyZs5_iJd-3Z-41" style="edgeStyle=orthogonalEdgeStyle;rounded=0;orthogonalLoop=1;jettySize=auto;html=1;exitX=0.5;exitY=1;exitDx=0;exitDy=0;" edge="1" parent="1" source="fUESMz7QUyZs5_iJd-3Z-31" target="fUESMz7QUyZs5_iJd-3Z-32">
          <mxGeometry relative="1" as="geometry" />
        </mxCell>
        <mxCell id="fUESMz7QUyZs5_iJd-3Z-31" value="在工地场景下对安全帽检测实时性较低" style="rounded=0;whiteSpace=wrap;html=1;" vertex="1" parent="1">
          <mxGeometry x="400" y="470" width="180" height="30" as="geometry" />
        </mxCell>
        <mxCell id="fUESMz7QUyZs5_iJd-3Z-32" value="GhostNet轻量化主干网络" style="rounded=0;whiteSpace=wrap;html=1;" vertex="1" parent="1">
          <mxGeometry x="425" y="525" width="130" height="30" as="geometry" />
        </mxCell>
        <mxCell id="fUESMz7QUyZs5_iJd-3Z-42" value="总结与展望" style="rounded=0;whiteSpace=wrap;html=1;" vertex="1" parent="1">
          <mxGeometry x="225" y="600" width="180" height="30" as="geometry" />
        </mxCell>
        <mxCell id="fUESMz7QUyZs5_iJd-3Z-43" style="edgeStyle=orthogonalEdgeStyle;rounded=0;orthogonalLoop=1;jettySize=auto;html=1;exitX=0.5;exitY=1;exitDx=0;exitDy=0;entryX=0.45;entryY=0.067;entryDx=0;entryDy=0;entryPerimeter=0;" edge="1" parent="1" source="fUESMz7QUyZs5_iJd-3Z-23" target="fUESMz7QUyZs5_iJd-3Z-42">
          <mxGeometry relative="1" as="geometry" />
        </mxCell>
        <mxCell id="fUESMz7QUyZs5_iJd-3Z-44" style="edgeStyle=orthogonalEdgeStyle;rounded=0;orthogonalLoop=1;jettySize=auto;html=1;exitX=0.5;exitY=1;exitDx=0;exitDy=0;entryX=0.45;entryY=-0.033;entryDx=0;entryDy=0;entryPerimeter=0;" edge="1" parent="1" source="fUESMz7QUyZs5_iJd-3Z-29" target="fUESMz7QUyZs5_iJd-3Z-42">
          <mxGeometry relative="1" as="geometry" />
        </mxCell>
      </root>
    </mxGraphModel>
  </diagram>
</mxfile>
